<mxfile host="app.diagrams.net" modified="2023-08-15T15:27:47.124Z" agent="Mozilla/5.0 (Windows NT 10.0; Win64; x64) AppleWebKit/537.36 (KHTML, like Gecko) Chrome/115.0.0.0 Safari/537.36" etag="Uu4w4rIr5qyJ8ZOR97SK" version="21.6.8" type="github" pages="3">
  <diagram name="Página-1" id="iL_tQweez6zpGswX6M42">
    <mxGraphModel dx="819" dy="447" grid="1" gridSize="10" guides="1" tooltips="1" connect="1" arrows="1" fold="1" page="1" pageScale="1" pageWidth="827" pageHeight="1169" math="0" shadow="0">
      <root>
        <mxCell id="0" />
        <mxCell id="1" parent="0" />
        <mxCell id="DFWy4gB0J0r2oP6dWkR--5" value="" style="rounded=0;orthogonalLoop=1;jettySize=auto;html=1;" edge="1" parent="1" source="DFWy4gB0J0r2oP6dWkR--1" target="DFWy4gB0J0r2oP6dWkR--4">
          <mxGeometry relative="1" as="geometry" />
        </mxCell>
        <mxCell id="DFWy4gB0J0r2oP6dWkR--7" value="1:SetConfig()" style="edgeLabel;html=1;align=center;verticalAlign=middle;resizable=0;points=[];" vertex="1" connectable="0" parent="DFWy4gB0J0r2oP6dWkR--5">
          <mxGeometry x="-0.3347" y="1" relative="1" as="geometry">
            <mxPoint x="54" y="-77" as="offset" />
          </mxGeometry>
        </mxCell>
        <mxCell id="DFWy4gB0J0r2oP6dWkR--10" value="2:Init_Click()" style="edgeLabel;html=1;align=center;verticalAlign=middle;resizable=0;points=[];" vertex="1" connectable="0" parent="DFWy4gB0J0r2oP6dWkR--5">
          <mxGeometry x="0.0295" y="2" relative="1" as="geometry">
            <mxPoint x="28" y="-67" as="offset" />
          </mxGeometry>
        </mxCell>
        <mxCell id="DFWy4gB0J0r2oP6dWkR--13" value="3:Fin_Click()" style="edgeLabel;html=1;align=center;verticalAlign=middle;resizable=0;points=[];" vertex="1" connectable="0" parent="DFWy4gB0J0r2oP6dWkR--5">
          <mxGeometry x="-0.1969" y="3" relative="1" as="geometry">
            <mxPoint x="44" y="-39" as="offset" />
          </mxGeometry>
        </mxCell>
        <mxCell id="DFWy4gB0J0r2oP6dWkR--15" value="4:Estadisticas_Click()" style="edgeLabel;html=1;align=center;verticalAlign=middle;resizable=0;points=[];" vertex="1" connectable="0" parent="DFWy4gB0J0r2oP6dWkR--5">
          <mxGeometry x="-0.2118" relative="1" as="geometry">
            <mxPoint x="66" y="-22" as="offset" />
          </mxGeometry>
        </mxCell>
        <mxCell id="DFWy4gB0J0r2oP6dWkR--17" value="5:Salir_Click()" style="edgeLabel;html=1;align=center;verticalAlign=middle;resizable=0;points=[];" vertex="1" connectable="0" parent="DFWy4gB0J0r2oP6dWkR--5">
          <mxGeometry x="-0.0045" relative="1" as="geometry">
            <mxPoint x="41" y="-8" as="offset" />
          </mxGeometry>
        </mxCell>
        <mxCell id="DFWy4gB0J0r2oP6dWkR--1" value="Usuario" style="shape=umlActor;verticalLabelPosition=bottom;verticalAlign=top;html=1;outlineConnect=0;" vertex="1" parent="1">
          <mxGeometry x="399" y="80" width="30" height="60" as="geometry" />
        </mxCell>
        <mxCell id="DFWy4gB0J0r2oP6dWkR--4" value=":MainPeluquero&lt;br&gt;(Interfaz Grafica)" style="whiteSpace=wrap;html=1;verticalAlign=middle;" vertex="1" parent="1">
          <mxGeometry x="560" y="180" width="150" height="60" as="geometry" />
        </mxCell>
      </root>
    </mxGraphModel>
  </diagram>
  <diagram id="EEnRtndlje5-YloGZLAR" name="Página-2">
    <mxGraphModel dx="1434" dy="782" grid="1" gridSize="10" guides="1" tooltips="1" connect="1" arrows="1" fold="1" page="1" pageScale="1" pageWidth="827" pageHeight="1169" math="0" shadow="0">
      <root>
        <mxCell id="0" />
        <mxCell id="1" parent="0" />
        <mxCell id="92h3PX4g_Z4OsnMI57Ag-8" style="rounded=0;orthogonalLoop=1;jettySize=auto;html=1;entryX=0;entryY=0.5;entryDx=0;entryDy=0;" edge="1" parent="1" target="92h3PX4g_Z4OsnMI57Ag-3">
          <mxGeometry relative="1" as="geometry">
            <mxPoint x="140" y="300" as="sourcePoint" />
          </mxGeometry>
        </mxCell>
        <mxCell id="92h3PX4g_Z4OsnMI57Ag-9" style="rounded=0;orthogonalLoop=1;jettySize=auto;html=1;exitX=1;exitY=1;exitDx=0;exitDy=0;exitPerimeter=0;entryX=0;entryY=0.5;entryDx=0;entryDy=0;" edge="1" parent="1" source="92h3PX4g_Z4OsnMI57Ag-1" target="92h3PX4g_Z4OsnMI57Ag-4">
          <mxGeometry relative="1" as="geometry" />
        </mxCell>
        <mxCell id="92h3PX4g_Z4OsnMI57Ag-10" style="rounded=0;orthogonalLoop=1;jettySize=auto;html=1;exitX=1;exitY=1;exitDx=0;exitDy=0;exitPerimeter=0;entryX=0;entryY=0.5;entryDx=0;entryDy=0;" edge="1" parent="1" source="92h3PX4g_Z4OsnMI57Ag-1" target="92h3PX4g_Z4OsnMI57Ag-6">
          <mxGeometry relative="1" as="geometry" />
        </mxCell>
        <mxCell id="92h3PX4g_Z4OsnMI57Ag-11" style="rounded=0;orthogonalLoop=1;jettySize=auto;html=1;exitX=1;exitY=1;exitDx=0;exitDy=0;exitPerimeter=0;entryX=0;entryY=0.5;entryDx=0;entryDy=0;" edge="1" parent="1" source="92h3PX4g_Z4OsnMI57Ag-1" target="92h3PX4g_Z4OsnMI57Ag-5">
          <mxGeometry relative="1" as="geometry" />
        </mxCell>
        <mxCell id="92h3PX4g_Z4OsnMI57Ag-12" style="rounded=0;orthogonalLoop=1;jettySize=auto;html=1;exitX=1;exitY=1;exitDx=0;exitDy=0;exitPerimeter=0;entryX=0;entryY=0.5;entryDx=0;entryDy=0;" edge="1" parent="1" source="92h3PX4g_Z4OsnMI57Ag-1" target="92h3PX4g_Z4OsnMI57Ag-7">
          <mxGeometry relative="1" as="geometry" />
        </mxCell>
        <mxCell id="92h3PX4g_Z4OsnMI57Ag-1" value="Usuario" style="shape=umlActor;verticalLabelPosition=bottom;verticalAlign=top;html=1;outlineConnect=0;" vertex="1" parent="1">
          <mxGeometry x="110" y="240" width="30" height="60" as="geometry" />
        </mxCell>
        <mxCell id="92h3PX4g_Z4OsnMI57Ag-2" value="" style="swimlane;startSize=0;" vertex="1" parent="1">
          <mxGeometry x="309" y="130" width="210" height="400" as="geometry" />
        </mxCell>
        <mxCell id="92h3PX4g_Z4OsnMI57Ag-3" value="Configurar App" style="ellipse;whiteSpace=wrap;html=1;" vertex="1" parent="92h3PX4g_Z4OsnMI57Ag-2">
          <mxGeometry x="45" y="30" width="120" height="50" as="geometry" />
        </mxCell>
        <mxCell id="92h3PX4g_Z4OsnMI57Ag-4" value="Iniciar Simulación" style="ellipse;whiteSpace=wrap;html=1;" vertex="1" parent="92h3PX4g_Z4OsnMI57Ag-2">
          <mxGeometry x="45" y="100" width="120" height="50" as="geometry" />
        </mxCell>
        <mxCell id="92h3PX4g_Z4OsnMI57Ag-5" value="Mostrar Estadisticas" style="ellipse;whiteSpace=wrap;html=1;" vertex="1" parent="92h3PX4g_Z4OsnMI57Ag-2">
          <mxGeometry x="45" y="240" width="120" height="50" as="geometry" />
        </mxCell>
        <mxCell id="92h3PX4g_Z4OsnMI57Ag-6" value="Finalizar Simulación" style="ellipse;whiteSpace=wrap;html=1;" vertex="1" parent="92h3PX4g_Z4OsnMI57Ag-2">
          <mxGeometry x="45" y="170" width="120" height="50" as="geometry" />
        </mxCell>
        <mxCell id="92h3PX4g_Z4OsnMI57Ag-7" value="Salir&amp;nbsp;" style="ellipse;whiteSpace=wrap;html=1;" vertex="1" parent="92h3PX4g_Z4OsnMI57Ag-2">
          <mxGeometry x="45" y="310" width="120" height="50" as="geometry" />
        </mxCell>
      </root>
    </mxGraphModel>
  </diagram>
  <diagram id="iIvA5u6TYOLTLAVrW6ez" name="Página-3">
    <mxGraphModel dx="1434" dy="782" grid="1" gridSize="10" guides="1" tooltips="1" connect="1" arrows="1" fold="1" page="1" pageScale="1" pageWidth="827" pageHeight="1169" math="0" shadow="0">
      <root>
        <mxCell id="0" />
        <mxCell id="1" parent="0" />
      </root>
    </mxGraphModel>
  </diagram>
</mxfile>
